<svg id="Layer_1" data-name="Layer 1" xmlns="http://www.w3.org/2000/svg" viewBox="0 0 172.31 91.99"><defs><style>.cls-1{fill:#fff;}</style></defs><g id="Group_3962" data-name="Group 3962"><rect id="Rectangle_107" data-name="Rectangle 107" class="cls-1" x="145.64" width="10.76" height="10.76"/><rect id="Rectangle_108" data-name="Rectangle 108" class="cls-1" x="129.73" width="10.76" height="10.76"/><rect id="Rectangle_109" data-name="Rectangle 109" class="cls-1" x="113.82" width="10.76" height="10.76"/><rect id="Rectangle_110" data-name="Rectangle 110" class="cls-1" x="97.91" width="10.76" height="10.76"/><rect id="Rectangle_111" data-name="Rectangle 111" class="cls-1" x="129.73" y="15.91" width="10.76" height="10.76"/><rect id="Rectangle_112" data-name="Rectangle 112" class="cls-1" x="113.82" y="15.91" width="10.76" height="10.76"/><rect id="Rectangle_113" data-name="Rectangle 113" class="cls-1" x="97.91" y="15.91" width="10.76" height="10.76"/><rect id="Rectangle_114" data-name="Rectangle 114" class="cls-1" x="82" y="15.91" width="10.76" height="10.76"/><rect id="Rectangle_115" data-name="Rectangle 115" class="cls-1" x="66.09" y="15.91" width="10.76" height="10.76"/><rect id="Rectangle_116" data-name="Rectangle 116" class="cls-1" x="161.55" y="31.82" width="10.76" height="10.76"/><rect id="Rectangle_117" data-name="Rectangle 117" class="cls-1" x="145.64" y="31.82" width="10.76" height="10.76"/><rect id="Rectangle_118" data-name="Rectangle 118" class="cls-1" x="129.73" y="31.82" width="10.76" height="10.76"/><rect id="Rectangle_119" data-name="Rectangle 119" class="cls-1" x="113.82" y="31.82" width="10.76" height="10.76"/><rect id="Rectangle_120" data-name="Rectangle 120" class="cls-1" x="145.64" y="47.73" width="10.76" height="10.76"/><rect id="Rectangle_121" data-name="Rectangle 121" class="cls-1" x="129.73" y="47.73" width="10.76" height="10.76"/><rect id="Rectangle_122" data-name="Rectangle 122" class="cls-1" x="129.73" y="63.64" width="10.76" height="10.76"/><rect id="Rectangle_123" data-name="Rectangle 123" class="cls-1" x="113.82" y="47.73" width="10.76" height="10.76"/><rect id="Rectangle_124" data-name="Rectangle 124" class="cls-1" x="97.91" y="31.82" width="10.76" height="10.76"/><path id="Path_12" data-name="Path 12" class="cls-1" d="M156.56-1992h5.85v6h-5.85Zm12.37,25.34v6.61H162.5v.94a9.44,9.44,0,0,1-.54,3.2,9.22,9.22,0,0,1-1.89,2.65,5.93,5.93,0,0,1-2.66,1.89,7.21,7.21,0,0,1-3.19.77h-4.54v-6.8h4.54a1.52,1.52,0,0,0,1.49-.76,3,3,0,0,0,.18-1v-22.67h6.61v15.11Z" transform="translate(-149.68 2034.45)"/><path id="Path_13" data-name="Path 13" class="cls-1" d="M178.7-1957.11h5.84v6H178.7Zm8.81-24.52a7.74,7.74,0,0,1,3.42.76,8.65,8.65,0,0,1,4.55,4.32,9.92,9.92,0,0,1,.54,3.24v13.23H167.13v-6.62H189.4v-6.61a1.43,1.43,0,0,0-.18-.76,5.53,5.53,0,0,0-.76-.77,1.92,1.92,0,0,0-1-.18H173.34l2.66-6.61Z" transform="translate(-149.68 2034.45)"/><path id="Path_14" data-name="Path 14" class="cls-1" d="M208.12-1975a3,3,0,0,0-.94.18,1.64,1.64,0,0,0-.77,1.53v6.62h8v-6.62a1.66,1.66,0,0,0-.77-1.53,3,3,0,0,0-.94-.18Zm4.55-6.79a7.07,7.07,0,0,1,3.19.76,7.92,7.92,0,0,1,4.54,4.55,7.08,7.08,0,0,1,.77,3.19v6.62h6.21v6.61h-6.21v1.13a7.38,7.38,0,0,1-.77,3.23,7.81,7.81,0,0,1-4.54,4.5,8.32,8.32,0,0,1-3.19.59h-5.13v-6.61h5.13a1.62,1.62,0,0,0,1.71-1.5v-1.34H199.62v-13.23a12.47,12.47,0,0,1,.76-3.19,12,12,0,0,1,1.89-2.84,6.88,6.88,0,0,1,2.66-1.71,7.07,7.07,0,0,1,3.19-.76Z" transform="translate(-149.68 2034.45)"/><path id="Path_15" data-name="Path 15" class="cls-1" d="M240.52-1975a2.19,2.19,0,0,0-1.71.77,1.8,1.8,0,0,0-.18.94v6.62h7.92V-1975Zm-14.94,14.94v-6.61H232v-6.62a9.1,9.1,0,0,1,.54-3.19,12,12,0,0,1,1.89-2.84,7,7,0,0,1,2.65-1.71,7.8,7.8,0,0,1,3.42-.76h12.83v21.73Z" transform="translate(-149.68 2034.45)"/><path id="Path_16" data-name="Path 16" class="cls-1" d="M225.94-1953.84l2.84,3.41,2.84-3.41h1.5v8.65h-1.68v-6.07h-.05l-2.5,3h-.23l-2.5-3h0v6.07h-1.67v-8.65Z" transform="translate(-149.68 2034.45)"/><path id="Path_17" data-name="Path 17" class="cls-1" d="M237.09-1949.51a3.11,3.11,0,0,0,.39,1.55,2.74,2.74,0,0,0,1.09,1.07,3.3,3.3,0,0,0,1.57.37,3,3,0,0,0,2.19-.83,2.87,2.87,0,0,0,.86-2.16,3.12,3.12,0,0,0-.38-1.55,2.8,2.8,0,0,0-1.09-1.07,3.54,3.54,0,0,0-3.17,0,2.59,2.59,0,0,0-1.08,1.07,3.1,3.1,0,0,0-.38,1.55m3-4.44a5.08,5.08,0,0,1,2.42.55,4.36,4.36,0,0,1,1.87,5.89,4.32,4.32,0,0,1-1.85,1.86,5.46,5.46,0,0,1-4.89,0,4.3,4.3,0,0,1-2.33-3.85,4.32,4.32,0,0,1,.62-2.24,4.18,4.18,0,0,1,1.69-1.62,5.06,5.06,0,0,1,2.48-.58" transform="translate(-149.68 2034.45)"/><path id="Path_18" data-name="Path 18" class="cls-1" d="M248.88-1953.84v8.33a3.22,3.22,0,0,1-.75,2.22,2.53,2.53,0,0,1-2,.83h-.32l-.12-1.45c1,0,1.48-.58,1.48-1.74v-8.18Z" transform="translate(-149.68 2034.45)"/><path id="Path_19" data-name="Path 19" class="cls-1" d="M253.71-1948.56h2.8L255-1952Zm2.18-5.28,3.83,8.65H258l-.9-2.1H253.2l-.83,2.1h-1.76l3.57-8.65Z" transform="translate(-149.68 2034.45)"/><path id="Path_20" data-name="Path 20" class="cls-1" d="M268.54-1953.84l-5.05,7.35h5.07v1.3h-7.94l5-7.34h-4.73v-1.31Z" transform="translate(-149.68 2034.45)"/></g></svg>