<svg id="Layer_1" data-name="Layer 1" xmlns="http://www.w3.org/2000/svg" viewBox="0 0 459.74 245.43"><defs><style>.cls-1{fill:#65a0cc;}.cls-2{fill:#48a09c;}.cls-3{fill:#5a4eb1;}.cls-4{fill:#21104f;}.cls-5{fill:#97d3ee;}</style></defs><rect id="Rectangle_5794" data-name="Rectangle 5794" class="cls-1" x="388.59" width="28.7" height="28.7"/><rect id="Rectangle_5795" data-name="Rectangle 5795" class="cls-2" x="346.14" width="28.7" height="28.7"/><rect id="Rectangle_5796" data-name="Rectangle 5796" class="cls-3" x="303.69" width="28.7" height="28.7"/><rect id="Rectangle_5797" data-name="Rectangle 5797" class="cls-4" x="261.24" width="28.7" height="28.7"/><rect id="Rectangle_5798" data-name="Rectangle 5798" class="cls-5" x="346.14" y="42.45" width="28.7" height="28.7"/><rect id="Rectangle_5799" data-name="Rectangle 5799" class="cls-1" x="303.69" y="42.45" width="28.7" height="28.7"/><rect id="Rectangle_5800" data-name="Rectangle 5800" class="cls-2" x="261.24" y="42.45" width="28.7" height="28.7"/><rect id="Rectangle_5801" data-name="Rectangle 5801" class="cls-3" x="218.79" y="42.45" width="28.7" height="28.7"/><rect id="Rectangle_5802" data-name="Rectangle 5802" class="cls-4" x="176.34" y="42.45" width="28.7" height="28.7"/><rect id="Rectangle_5803" data-name="Rectangle 5803" class="cls-5" x="431.04" y="84.9" width="28.7" height="28.7"/><rect id="Rectangle_5804" data-name="Rectangle 5804" class="cls-1" x="388.59" y="84.9" width="28.7" height="28.7"/><rect id="Rectangle_5805" data-name="Rectangle 5805" class="cls-2" x="346.14" y="84.9" width="28.7" height="28.7"/><rect id="Rectangle_5806" data-name="Rectangle 5806" class="cls-3" x="303.69" y="84.9" width="28.7" height="28.7"/><rect id="Rectangle_5807" data-name="Rectangle 5807" class="cls-2" x="388.59" y="127.35" width="28.7" height="28.7"/><rect id="Rectangle_5808" data-name="Rectangle 5808" class="cls-3" x="346.14" y="127.35" width="28.7" height="28.7"/><rect id="Rectangle_5809" data-name="Rectangle 5809" class="cls-4" x="346.14" y="169.8" width="28.7" height="28.7"/><rect id="Rectangle_5810" data-name="Rectangle 5810" class="cls-4" x="303.69" y="127.35" width="28.7" height="28.7"/><rect id="Rectangle_5811" data-name="Rectangle 5811" class="cls-4" x="261.24" y="84.9" width="28.7" height="28.7"/><path id="Path_474" data-name="Path 474" class="cls-4" d="M24.33-1998H39.94v16.08H24.33Zm33,67.58v17.65H40.18v2.52a24.79,24.79,0,0,1-1.45,8.53,25.05,25.05,0,0,1-5,7.08,16.05,16.05,0,0,1-7.08,5,19.39,19.39,0,0,1-8.52,2H6v-18.13H18.09c1.92,0,3.36-.72,4-2a8.33,8.33,0,0,0,.48-2.52v-60.5H40.18v40.34Z" transform="translate(-5.96 2111.19)"/><path id="Path_475" data-name="Path 475" class="cls-4" d="M83.39-1904.86H99v16.09H83.39Zm23.53-65.42a20.75,20.75,0,0,1,9.13,2c5.28,1.92,9.36,6.24,12.12,11.52a26.26,26.26,0,0,1,1.44,8.65v35.29H52.54v-17.65H112v-17.64a3.92,3.92,0,0,0-.48-2,16.46,16.46,0,0,0-2-2.05,5.08,5.08,0,0,0-2.52-.48H69.11l7.08-17.64Z" transform="translate(-5.96 2111.19)"/><path id="Path_476" data-name="Path 476" class="cls-4" d="M161.9-1952.64a8.33,8.33,0,0,0-2.52.48,4.35,4.35,0,0,0-2,4.09v17.64h21.25v-17.64a4.37,4.37,0,0,0-2.05-4.09,8.33,8.33,0,0,0-2.52-.48ZM174-1970.76a18.83,18.83,0,0,1,8.52,2,21.15,21.15,0,0,1,12.12,12.12,19,19,0,0,1,2.05,8.53v17.64h16.57v17.65H196.72v3a19.78,19.78,0,0,1-2.05,8.64,20.93,20.93,0,0,1-12.12,12,22.38,22.38,0,0,1-8.52,1.56H160.34v-17.64H174a4.29,4.29,0,0,0,4.56-4,5.42,5.42,0,0,0,0-.57v-3H139.21v-35.3a33.41,33.41,0,0,1,2-8.52,32,32,0,0,1,5.05-7.56,18.3,18.3,0,0,1,7.08-4.56,18.83,18.83,0,0,1,8.52-2Z" transform="translate(-5.96 2111.19)"/><path id="Path_477" data-name="Path 477" class="cls-4" d="M248.34-1952.63a5.85,5.85,0,0,0-4.57,2,5.08,5.08,0,0,0-.48,2.52v17.64h21.13v-22.2Zm-39.85,39.85v-17.65h17.16v-17.64a25,25,0,0,1,1.44-8.53,32.17,32.17,0,0,1,5-7.56,18.53,18.53,0,0,1,7.09-4.56,20.82,20.82,0,0,1,9.12-2h34.21v58Z" transform="translate(-5.96 2111.19)"/><path id="Path_478" data-name="Path 478" class="cls-4" d="M209.43-1896.13,217-1887l7.59-9.11h4V-1873h-4.47v-16.21H224l-6.68,8.13h-.62l-6.68-8.13h-.13V-1873h-4.47v-23.09Z" transform="translate(-5.96 2111.19)"/><path id="Path_479" data-name="Path 479" class="cls-4" d="M239.19-1884.57a8.19,8.19,0,0,0,1.05,4.13,7.21,7.21,0,0,0,2.9,2.84,8.55,8.55,0,0,0,4.2,1,8,8,0,0,0,5.85-2.23,7.73,7.73,0,0,0,2.29-5.75,8.32,8.32,0,0,0-1-4.14,7.13,7.13,0,0,0-2.91-2.85,9.27,9.27,0,0,0-8.44,0,7.06,7.06,0,0,0-2.89,2.84,8.54,8.54,0,0,0-1,4.14m8.15-11.85a13.79,13.79,0,0,1,6.46,1.48,11.67,11.67,0,0,1,5,15.73,11.63,11.63,0,0,1-4.92,5,14.64,14.64,0,0,1-13.06,0,11.44,11.44,0,0,1-6.21-10.28,11.64,11.64,0,0,1,1.64-6,11.41,11.41,0,0,1,4.51-4.34,13.68,13.68,0,0,1,6.61-1.54" transform="translate(-5.96 2111.19)"/><path id="Path_480" data-name="Path 480" class="cls-4" d="M270.64-1896.13v22.22a8.56,8.56,0,0,1-2,5.92,6.69,6.69,0,0,1-5.26,2.23H263a3.13,3.13,0,0,1-.43,0l-.32-3.85q4,0,4-4.64v-21.84Z" transform="translate(-5.96 2111.19)"/><path id="Path_481" data-name="Path 481" class="cls-4" d="M283.54-1882H291l-3.9-9.14Zm5.82-14.09,10.2,23.09h-4.71l-2.4-5.61H282.19L280-1873h-4.67l9.52-23.09Z" transform="translate(-5.96 2111.19)"/><path id="Path_482" data-name="Path 482" class="cls-4" d="M323.09-1896.13l-13.46,19.61h13.52v3.48H302l13.43-19.6H302.78v-3.48Z" transform="translate(-5.96 2111.19)"/></svg>